<svg xmlns="http://www.w3.org/2000/svg" width="500" height="500" style="width:100%;height:100%;transform:translate3d(0,0,0);content-visibility:visible" viewBox="0 0 500 500"><defs><mask id="f" mask-type="alpha"><use xmlns:ns1="http://www.w3.org/1999/xlink" ns1:href="#a"/></mask><mask id="e" mask-type="alpha"><use xmlns:ns2="http://www.w3.org/1999/xlink" ns2:href="#b"/></mask><mask id="h" mask-type="alpha"><use xmlns:ns3="http://www.w3.org/1999/xlink" ns3:href="#c"/></mask><g id="c" clip-path="url(#d)" style="display:block"><g mask="url(#e)" style="display:block"><path fill-opacity="0" stroke="#08A88A" stroke-linecap="round" stroke-linejoin="round" stroke-width="13.055" d="m331.129 250-123.713-82.194v164.388L331.129 250z"/></g><g mask="url(#f)" style="display:none"><path fill-opacity="0" stroke-linecap="round" stroke-linejoin="round"/></g><path fill-opacity="0" stroke="#08A88A" stroke-linecap="round" stroke-linejoin="round" stroke-width="3.5" d="M49.667 0c0 27.614-22.386 50-50 50s-50-22.386-50-50 22.386-50 50-50 50 22.386 50 50z" style="display:block" transform="matrix(3.73 0 0 3.73 250 250)"/></g><g id="a" style="display:block"><path fill="#121331" d="M435.258 250c0 103-83.5 186.5-186.5 186.5S62.258 353 62.258 250s83.5-186.5 186.5-186.5 186.5 83.5 186.5 186.5z"/><path fill="#121331" d="M435.258 250c0 103-83.5 186.5-186.5 186.5S62.258 353 62.258 250s83.5-186.5 186.5-186.5 186.5 83.5 186.5 186.5z"/><path fill-opacity="0" stroke="#08A88A" stroke-linecap="round" stroke-linejoin="round" stroke-width="13.055" d="M435.258 250c0 103-83.5 186.5-186.5 186.5S62.258 353 62.258 250s83.5-186.5 186.5-186.5 186.5 83.5 186.5 186.5z"/></g><g id="b" style="display:block"><path fill="#121331" d="M435.258 250c0 103-83.5 186.5-186.5 186.5S62.258 353 62.258 250s83.5-186.5 186.5-186.5 186.5 83.5 186.5 186.5z"/><path fill="#121331" d="M435.258 250c0 103-83.5 186.5-186.5 186.5S62.258 353 62.258 250s83.5-186.5 186.5-186.5 186.5 83.5 186.5 186.5z"/><path fill-opacity="0" stroke="#08A88A" stroke-linecap="round" stroke-linejoin="round" stroke-width="13.055" d="M435.258 250c0 103-83.5 186.5-186.5 186.5S62.258 353 62.258 250s83.5-186.5 186.5-186.5 186.5 83.5 186.5 186.5z"/></g><clipPath id="g"><path d="M0 0h500v500H0z"/></clipPath><clipPath id="d"><path d="M0 0h500v500H0z"/></clipPath><filter id="i" width="300%" height="300%" x="-100%" y="-100%"><feGaussianBlur result="filter_result_0" stdDeviation="52.5 52.5"/></filter></defs><g clip-path="url(#g)"><g mask="url(#h)" style="display:block"><g filter="url(#i)" transform="rotate(-94 262.075 8.435) scale(2.4)"><path fill="#4BE1EC" d="M0-250c137.975 0 250 112.025 250 250S137.975 250 0 250-250 137.975-250 0-137.975-250 0-250z" class="design"/><path fill="#CB5EEE" d="M113.242-295.384c97.478 0 176.5 79.022 176.5 176.5s-79.022 176.5-176.5 176.5c-43.948 0-74.396-34.057-105.29-60.631-37.631-32.369-71.21-62.338-71.21-115.869 0-97.478 79.022-176.5 176.5-176.5z" class="design"/></g></g><path style="display:none"/></g></svg>